Coordinates
version=1
nRows=9
nColumns=63
inDegrees=yes

Units are S.I. units (second, meters, Newtons, ...)
If the header above contains a line with 'inDegrees', this indicates whether rotational values are in degrees (yes) or radians (no).

endheader
time	pelvis_tilt	pelvis_list	pelvis_rotation	pelvis_tx	pelvis_ty	pelvis_tz	hip_flexion_r	hip_adduction_r	hip_rotation_r	knee_angle_r	knee_angle_r_beta	ankle_angle_r	subtalar_angle_r	mtp_angle_r	hip_flexion_l	hip_adduction_l	hip_rotation_l	knee_angle_l	knee_angle_l_beta	ankle_angle_l	subtalar_angle_l	mtp_angle_l	L5_S1_Flex_Ext	L5_S1_Lat_Bending	L5_S1_axial_rotation	L4_L5_Flex_Ext	L4_L5_Lat_Bending	L4_L5_axial_rotation	L3_L4_Flex_Ext	L3_L4_Lat_Bending	L3_L4_axial_rotation	L2_L3_Flex_Ext	L2_L3_Lat_Bending	L2_L3_axial_rotation	L1_L2_Flex_Ext	L1_L2_Lat_Bending	L1_L2_axial_rotation	L1_T12_Flex_Ext	L1_T12_Lat_Bending	L1_T12_axial_rotation	Abs_r3	Abs_r2	Abs_r1	Abs_t1	Abs_t2	neck_flexion	neck_bending	neck_rotation	arm_flex_r	arm_add_r	arm_rot_r	elbow_flex_r	pro_sup_r	wrist_flex_r	wrist_dev_r	arm_flex_l	arm_add_l	arm_rot_l	elbow_flex_l	pro_sup_l	wrist_flex_l	wrist_dev_l
      2.37288136	     -3.73026068	    -11.53284743	     91.17585120	      0.17628068	      1.04168878	      0.14108301	     12.26824162	     -4.16887985	     -1.50580429	      9.60780773	      0.16768788	     38.35161910	      5.69447620	      0.00000000	     12.96185023	      6.71118651	      9.57022669	      8.52276452	      0.14875030	     31.00305238	    -15.59291876	      0.00000000	      0.09287788	     -0.32787036	      0.23635446	      0.17248352	     -0.43606758	      0.25112661	      0.15258907	     -0.79718400	      0.25112661	      0.10615013	     -0.79718400	      0.20681015	      0.08624640	     -0.66859324	      0.19203800	      0.05307042	     -0.50787119	      0.17726584	      0.66341743	     -3.70893512	      1.31453259	      0.00000000	      0.00000000	     26.56122226	      1.43156252	     25.15714962	     14.29780727	     -6.25408754	     65.88677656	     40.60329886	     87.60097219	      1.69159097	      2.54629849	     17.36127003	     -8.66560528	     66.35487307	     45.08581582	     78.86288953	      7.29526735	      5.99121206
      2.38983051	     -3.87044800	    -11.62647957	     91.12661983	      0.17615899	      1.04137530	      0.14202619	     12.63470266	     -4.38209014	     -1.89514894	     10.04406446	      0.17530200	     38.57788014	      6.16645645	      0.00000000	     13.26216056	      6.87187704	      9.25843742	      8.84685590	      0.15440676	     30.98325673	    -15.74163869	      0.00000000	      0.08809552	     -0.34412682	      0.26717710	      0.16360219	     -0.45768867	      0.28387566	      0.14473213	     -0.83670996	      0.28387566	      0.10068437	     -0.83670996	      0.23377996	      0.08180550	     -0.70174342	      0.21708139	      0.05033778	     -0.53305245	      0.20038282	      0.62925750	     -3.89283145	      1.48595885	      0.00000000	      0.00000000	     26.31495562	      1.61138680	     24.91782572	     13.84841033	     -6.44155343	     63.91729359	     41.10544106	     86.99030327	      2.09100290	      2.66016309	     17.19950949	     -8.62106271	     65.96170689	     45.11709078	     80.58995876	      7.12040227	      5.41252049
      2.40677966	     -4.11447722	    -11.69124638	     90.71896010	      0.17681578	      1.04106933	      0.14291013	     13.05610447	     -4.55936634	     -1.36901692	     10.55430912	      0.18420744	     38.55112892	      5.85452828	      0.00000000	     13.57350770	      6.95093457	      7.41309758	      9.19502836	      0.16048352	     31.48548069	    -14.21772358	      0.00000000	      0.08129692	     -0.37541467	      0.39225633	      0.15097652	     -0.49930151	      0.41677235	      0.13356272	     -0.91278322	      0.41677235	      0.09291425	     -0.91278322	      0.34322429	      0.07549232	     -0.76554559	      0.31870827	      0.04645306	     -0.58151732	      0.29419225	      0.58069579	     -4.24676580	      2.18161202	      0.00000000	      0.00000000	     26.11017292	      1.97471615	     24.51011698	     13.39345148	     -6.65142852	     62.10673605	     41.72904504	     86.48870490	      1.89357249	      2.56627868	     17.19908843	     -8.76267821	     66.27622680	     45.36954516	     80.89663559	      5.44760819	      4.18068293
      2.42372881	     -4.35982652	    -11.75764554	     90.71213613	      0.17667525	      1.04075376	      0.14358864	     13.41750824	     -4.91123327	     -1.98371662	     11.10683866	      0.19385090	     38.75452029	      6.54988457	      0.00000000	     13.62204176	      7.24701713	      7.91998348	      9.01206965	      0.15729029	     31.14897129	    -15.13101436	      0.00000000	      0.07867357	     -0.40525551	      0.44467818	      0.14610468	     -0.53898983	      0.47247056	      0.12925280	     -0.98533826	      0.47247056	      0.08991602	     -0.98533826	      0.38909341	      0.07305627	     -0.82639704	      0.36130102	      0.04495408	     -0.62774079	      0.33350863	      0.56195742	     -4.58433143	      2.47316662	      0.00000000	      0.00000000	     25.95623755	      2.39303180	     23.92191234	     12.74527527	     -6.78339614	     60.06199599	     42.31665548	     84.99763592	      1.73462263	      2.76742489	     17.03193775	     -8.88887186	     66.23434739	     45.71843104	     81.60807105	      3.16365711	      2.65663523
      2.44067797	     -4.62383291	    -11.78188506	     90.48123023	      0.17696531	      1.04048291	      0.14431637	     13.79672764	     -5.21989587	     -2.37515449	     11.67026807	      0.20368460	     38.92604209	      7.30487933	      0.00000000	     13.72231933	      7.47396486	      7.77964042	      8.96558387	      0.15647896	     31.08144843	    -15.47512874	      0.00000000	      0.07571063	     -0.43864331	      0.56560060	      0.14060221	     -0.58339561	      0.60095063	      0.12438499	     -1.06651735	      0.60095063	      0.08652968	     -1.06651735	      0.49490052	      0.07030489	     -0.89448144	      0.45955048	      0.04326105	     -0.67945849	      0.42420045	      0.54079344	     -4.96202088	      3.14570083	      0.00000000	      0.00000000	     25.79241831	      2.67446296	     22.95478305	     12.20878433	     -6.94165241	     58.76389433	     42.78784296	     82.22691049	      1.16872904	      2.64850613	     17.18586999	     -8.99222346	     66.79910663	     45.99386154	     82.48283912	      0.56856070	      1.09217427
      2.45762712	     -4.88202703	    -11.75349113	     90.06427190	      0.17757168	      1.04030984	      0.14473674	     14.09110665	     -5.45980323	     -2.51072296	     12.09435778	      0.21108636	     39.15716079	      8.15089176	      0.00000000	     13.70774307	      7.62039431	      7.28824693	      8.79033972	      0.15342037	     31.18515630	    -15.37670994	      0.00000000	      0.07123760	     -0.46918806	      0.70301361	      0.13229535	     -0.62402012	      0.74695196	      0.11703625	     -1.14078385	      0.74695196	      0.08141745	     -1.14078385	      0.61513691	      0.06615123	     -0.95676829	      0.57119856	      0.04070516	     -0.72677230	      0.52726021	      0.50884305	     -5.30754916	      3.90995079	      0.00000000	      0.00000000	     25.67151584	      2.85855897	     22.01744282	     11.77963469	     -6.99274283	     58.10577397	     43.02089148	     78.17229716	      0.36505262	      2.43815665	     17.19992823	     -9.10180687	     66.84647371	     46.32725662	     83.26566360	     -1.25011577	      0.19663872
      2.47457627	     -5.01929594	    -11.68086966	     89.74587889	      0.17806695	      1.04027971	      0.14467841	     14.18705801	     -5.57302865	     -2.63437507	     12.25392018	      0.21387125	     39.42904582	      8.99158059	      0.00000000	     13.55664932	      7.66933558	      7.13087715	      8.49310160	      0.14823259	     31.28559209	    -15.47881222	      0.00000000	      0.06804539	     -0.48379447	      0.81468123	      0.12636709	     -0.64344664	      0.86559881	      0.11179176	     -1.17629786	      0.86559881	      0.07776907	     -1.17629786	      0.71284608	      0.06318695	     -0.98655367	      0.66192850	      0.03888113	     -0.74939763	      0.61101092	      0.48604139	     -5.47277975	      4.53101261	      0.00000000	      0.00000000	     25.62765352	      2.72483200	     21.00348715	     11.44203908	     -7.03985284	     57.97541420	     43.12491282	     73.27476874	     -0.42931332	      2.17972326	     17.19345931	     -9.14410933	     66.75309927	     46.62414531	     83.86762130	     -2.06565138	      0.05513809
      2.49152542	     -5.06483918	    -11.59796591	     89.45676069	      0.17870899	      1.04041918	      0.14413390	     14.12268902	     -5.51556900	     -2.24185851	     12.13173851	      0.21173878	     39.64074318	      9.20555673	      0.00000000	     13.32944847	      7.60336352	      6.79776642	      8.15298594	      0.14229645	     31.47665305	    -15.19565251	      0.00000000	      0.06841379	     -0.48955848	      0.91524129	      0.12705125	     -0.65111277	      0.97244387	      0.11239702	     -1.19031248	      0.97244387	      0.07819012	     -1.19031248	      0.80083613	      0.06352905	     -0.99830764	      0.74363355	      0.03909164	     -0.75832608	      0.68643097	      0.48867287	     -5.53798339	      5.09029748	      0.00000000	      0.00000000	     25.76715942	      2.33105504	     19.72389719	     11.02749323	     -6.97557154	     57.73491828	     43.08416812	     69.00321698	     -1.20106193	      1.65974796	     17.24473207	     -9.15139937	     66.85974362	     46.80380478	     84.15437754	     -2.30933181	      0.23929705
      2.50847458	     -4.91506287	    -11.46063230	     89.37715119	      0.17900847	      1.04072295	      0.14313744	     13.82644656	     -5.31137162	     -2.07691048	     11.78417982	      0.20567274	     39.85115730	      9.50928071	      0.00000000	     12.90342757	      7.40128509	      6.95660730	      7.64736634	      0.13347172	     31.60529135	    -15.20824657	      0.00000000	      0.06556670	     -0.46948175	      0.94921991	      0.12176391	     -0.62441073	      1.00854616	      0.10771952	     -1.14149793	      1.00854616	      0.07493618	     -1.14149793	      0.83056742	      0.06088523	     -0.95736719	      0.77124118	      0.03746481	     -0.72722724	      0.71191493	      0.46833635	     -5.31087148	      5.27927638	      0.00000000	      0.00000000	     26.09697014	      1.74366803	     18.42167913	     10.72116531	     -6.97383813	     57.83693936	     43.03647703	     64.35910993	     -1.76667792	      1.12488409	     17.12776926	     -9.06876917	     66.41231536	     46.98424255	     84.07746213	     -1.42735823	      1.32877959
